# xmcd
#
# Track frame offsets: 
#        183
#        13998
#        28473
#        42603
#        56023
#        70053
#        82540
#        95310
#        109605
#        120783
#        133133
#        145370
#        157410
#        171798
#        184078
#        197618
#        211735
#        224155
#        237545
#        250808
#        263425
#        277605
#        289243
#        303718
#
# Disc length: 4250 seconds
#
# Revision: 2
# Processed by: cddbd v1.5.1PL2 Copyright (c) Steve Scherf et al.
# Submitted via: ExactAudioCopy v0.95b3
#
DISCID=66109818
DTITLE=Count Basie And His Orchestra - 1940-1941
DYEAR=1940
DGENRE=Jazz
TTITLE0=Five O'clock Whistle
TTITLE1=Love Jumped Out
TTITLE2=My Wanderin' Man
TTITLE3=Broadway
TTITLE4=It's The Same Old South
TTITLE5=Stampede In G Minor
TTITLE6=Who Am I?
TTITLE7=Rockin' The Blues
TTITLE8=It's Square But It Rocks
TTITLE9=I'll Forget
TTITLE10=You Lied To Me
TTITLE11=Wiggle Woogie
TTITLE12=Beau Brummel
TTITLE13=Music Makers
TTITLE14=Jump The Blues Away
TTITLE15=Deep In The Blues
TTITLE16=The Jitters
TTITLE17=Tuesday At Ten
TTITLE18=Undecided Blues
TTITLE19=I Do Mean You
TTITLE20=9.20 Special
TTITLE21=H And J
TTITLE22=Feedin' The Bean
TTITLE23=Going To Chicago Blues
EXTD=
EXTT0=
EXTT1=
EXTT2=
EXTT3=
EXTT4=
EXTT5=
EXTT6=
EXTT7=
EXTT8=
EXTT9=
EXTT10=
EXTT11=
EXTT12=
EXTT13=
EXTT14=
EXTT15=
EXTT16=
EXTT17=
EXTT18=
EXTT19=
EXTT20=
EXTT21=
EXTT22=
EXTT23=
PLAYORDER=
